<?xml version="1.0" encoding="utf-8"?>
<!-- Generator: Adobe Illustrator 20.1.0, SVG Export Plug-In . SVG Version: 6.00 Build 0)  -->
<svg version="1.1" id="Layer_1" xmlns="http://www.w3.org/2000/svg" xmlns:xlink="http://www.w3.org/1999/xlink" x="0px" y="0px"
	 viewBox="0 0 800 600" style="enable-background:new 0 0 800 600;" xml:space="preserve">
<style type="text/css">
	.st0{fill:#76CFE4;}
	.st1{fill:#E5CE1E;}
	.st2{fill:#1B6432;}
	.st3{fill:#499443;}
	.st4{fill:#F68A1F;}
	.st5{fill:#DA3926;}
	.st6{fill:#9C2271;}
</style>
<g id="ocean">
	<g>
		<rect class="st0" width="800" height="600"/>
		<path id="sand" class="st1" d="M310.1,568.5c47.3,0.3,94.8,0.6,141.8-4.6c15-1.7,30-3.9,45-4.2c20.1-0.4,40.2,2.6,60.2,4.8
			c30.3,3.3,60.8,4.8,91.3,3.5c43.2-1.8,87-9.1,129.2,0.3c8,1.8,16.4,4.4,21.9,10.6c5.5,6.2,6.7,16.8,0.5,22.2
			c-156.6,16.2-314.5,3.3-472,1.7c-52-0.5-104,0.2-156,1c-59.5,0.8-118.9,1.7-178.4,2.5c-3.1,0,0.5-29.3,1.4-32
			c3.2-8.9,8-7.8,16.6-7.7c24.2,0.3,48.3,0.3,72.5,0.5c48.3,0.3,96.6,0.6,144.9,0.9C256.1,568.2,283.1,568.3,310.1,568.5z"/>
		<path id="seaweed2" class="st2" d="M713.7,1030.2c-14.7-15.4-17.5-43.8-11.1-64.1c6.5-20.3,16.8-40.1,16.5-61.4
			c-0.3-14.2-5.3-27.9-11.7-40.5c-9.1-18-21.1-34.7-35.3-49c-10.8-10.9-23.1-20.9-30.2-34.5c-20.5-39.6,11.7-89.1-1.7-131.6
			c-3.5-11.2-10.2-21.7-10.1-33.4c0-8.2,3.4-16,6-23.8c7.9-23.6,8.7-49.6,2.3-73.7c9.5,20,23.2,37.9,40,52.4
			c15.9,13.6,35.1,24.9,44,43.8c16.8,35.5-10.8,77.5-3.5,116.1c5.2,27.6,27.4,49.2,34.9,76.2c10.1,36-7.2,75.3,2.5,111.4
			c11.2,41.6,54.5,66.5,73.3,105.2"/>
		<path id="seaweed1" class="st3" d="M78.5,928c-3.2-23.6,14.3-44.3,23.2-66.3c16.4-40.5,3.5-86.6-13.6-126.7
			c-2.4-5.5-4.8-11.1-5.5-17c-1.4-11.6,3.8-22.9,5-34.5c3.4-34.3-8-67.4-19.3-99.9c-8.8-25.3-5.8-36.2-4.9-30.2
			c1.1,7.3,56.5,46.7,61.5,67.7c9.8,41.3-5.9,40.1,14.9,77c7.7,13.6,19.5,26.2,19.8,41.9c0.3,17.3-13.9,32.1-14.7,49.4
			c-1,20.3,16.6,38.5,14.1,58.7c-1.7,13.9-13,26-11.8,40c0.6,7,4.2,13.3,7.8,19.3c6.9,11.5,6.7,11.6,14,22.9"/>
	</g>
</g>
<g id="orange_x5F_fish">
	<path id="orange_x5F_fish_x5F_body" class="st4" d="M-94,254.6c4.2-3.2,8.4-6.4,13.3-8.4c4.7-1.9,9.8-2.7,14.8-3.4
		c3.3-0.5-4.2,0.6,19.4-2.8c11.9-1.7,11.9-1.7,17.8-1.2c7,0.6,13.6,3.2,20.1,5.7c5.3,2,10.6,4.1,15.9,6.1c3,1.2,6.1,2.4,8.7,4.4
		c3,2.5,5,5.9,7,9.3c4.5,7.9,9.1,16.3,8.6,25.3c-0.7,13.3-12,23.5-23.4,30.4c-21.3,12.9-47.4,20.2-71.4,13.7
		c-16-4.4-29.8-14.5-43-24.6c-4.5-3.5-13.2-9.2-8.8-11.1c-27.1,11.5-52.9,23.6-76.7,40.9c-2-5.7,2.6-11.5,6.7-16
		c8.5-9.5,16.2-19.8,22.9-30.7c2.5-4,4.9-8.5,4.2-13.1c-0.6-4.3-3.7-7.7-6.4-11c-10-12.1-17-26.7-20.3-42c-0.2-0.8-0.3-1.7,0-2.5
		c0.7-1.7,3.2-2,4.8-1c1.6,1,2.4,2.8,3.4,4.4c3.1,5.2,7.8,9.2,12.5,13c7,5.8,14,11.6,21.1,17.4c4.2,3.5,8.4,7,12.9,10.2
		c2.9,2.1,10.5,9,14.3,8.1c3.4-0.8,6.4-7.8,8.8-10.3C-103.1,261.4-98.6,258-94,254.6z"/>
	<circle id="orange_x5F_fish_x5F_eye" cx="-1.5" cy="269.6" r="6.8"/>
</g>
<g id="crab2">
	<path id="crab_x5F_body" class="st5" d="M187.8,607.1c-1.6,3.4-3.2,7-3.8,10.7c-0.6,3.4,1.3,8.2,0.5,11.4c-1,3.7-4.2,6-5.6,9.6
		c-1.6,3.9-3.1,7.9-4.4,11.9c-0.1,0.2-0.1,0.5,0,0.7s0.3,0.3,0.5,0.3c7.6,2.4,15.2,4.8,22.8,7.2c-4-4.6-9.8-7.2-15.4-9.6
		c2.6-3.3,5.4-7,7.6-10.1c1.7-2.4,1.4-4.3,2.7-4.7c0.8-0.2,4.9,2.5,5.8,2.6c5.6,1.1,11.5,1.1,17.2,1.2c7.9,0.1,15.8-0.3,23.7-1.1
		c4.2-0.4,12.8-3.2,17.1-2.9c2.9,0.2,6.3,5.5,8.7,3.9c-3.9,2.6-7.8,5.2-11.3,8.3c-3,2.5-5.9,5.5-6.6,9.4c11-4.7,21.5-10.6,31.1-17.6
		c-3.4-2.2-6.6-4.6-9.8-7.2c-1-0.8-4-2.6-4.4-3.8c-0.2-0.8,0.9-2.6,1-3.5c1-5-0.9-10-3.7-14.2c-5.6-8.3-15.6-15.8-25.6-17.5
		C218.2,588.9,196.2,589.3,187.8,607.1z"/>
	<ellipse id="crap_x5F_eye_x5F_2" cx="232" cy="608.6" rx="2.8" ry="4.7"/>
	<ellipse id="crab_x5F_eye_x5F_1" cx="217.3" cy="608.6" rx="2.8" ry="4.7"/>
</g>
<g id="crab1">
	<path id="crab_x5F_body_1_" class="st5" d="M506.6,600.9c-1.6,3.4-3.2,7-3.8,10.7c-0.6,3.4,1.3,8.2,0.5,11.4c-1,3.7-4.2,6-5.6,9.6
		c-1.6,3.9-3.1,7.9-4.4,11.9c-0.1,0.2-0.1,0.5,0,0.7s0.3,0.3,0.5,0.3c7.6,2.4,15.2,4.8,22.8,7.2c-4-4.6-9.8-7.2-15.4-9.6
		c2.6-3.3,5.4-7,7.6-10.1c1.7-2.4,1.4-4.3,2.7-4.7c0.8-0.2,4.9,2.5,5.8,2.6c5.6,1.1,11.5,1.1,17.2,1.2c7.9,0.1,15.8-0.3,23.7-1.1
		c4.2-0.4,12.8-3.2,17.1-2.9c2.9,0.2,6.3,5.5,8.7,3.9c-3.9,2.6-7.8,5.2-11.3,8.3c-3,2.5-5.9,5.5-6.6,9.4c11-4.7,21.5-10.6,31.1-17.6
		c-3.4-2.2-6.6-4.6-9.8-7.2c-1-0.8-4-2.6-4.4-3.8c-0.2-0.8,0.9-2.6,1-3.5c1-5-0.9-10-3.7-14.2c-5.6-8.3-15.6-15.8-25.6-17.5
		C537,582.7,515,583.2,506.6,600.9z"/>
	<ellipse id="crap_x5F_eye_x5F_2_1_" cx="550.8" cy="602.5" rx="2.8" ry="4.7"/>
	<ellipse id="crab_x5F_eye_x5F_1_1_" cx="536.1" cy="602.5" rx="2.8" ry="4.7"/>
</g>
<g id="purple_x5F_fish">
	<path id="purple_x5F_fish_x5F_body" class="st6" d="M890.2,62.5c-4.2-3.3-8.4-6.7-13.3-8.8c-4.7-2-9.8-2.8-14.8-3.6
		c-3.3-0.5,4.2,0.6-19.4-2.9c-11.9-1.8-11.9-1.8-17.8-1.2c-7,0.7-13.6,3.3-20.1,6c-5.3,2.1-10.6,4.3-15.9,6.4
		c-3,1.2-6.1,2.5-8.7,4.6c-3,2.6-5,6.2-7,9.8c-4.5,8.2-9.1,17-8.6,26.5c0.7,13.9,12,24.6,23.4,31.8c21.3,13.5,47.3,21.2,71.4,14.3
		c16-4.6,29.8-15.2,43-25.7c4.5-3.6,13.2-9.7,8.8-11.6c27.1,12.1,52.8,24.7,76.6,42.8c2-6-2.6-12-6.7-16.8
		c-8.5-10-16.2-20.7-22.9-32.1c-2.5-4.2-4.9-8.9-4.2-13.7c0.6-4.5,3.7-8,6.4-11.5c10-12.7,17-27.9,20.3-44c0.2-0.9,0.3-1.8,0-2.6
		c-0.7-1.8-3.2-2.1-4.8-1c-1.6,1.1-2.4,2.9-3.4,4.6c-3.1,5.4-7.8,9.6-12.5,13.6c-7,6.1-14,12.2-21.1,18.3
		c-4.2,3.7-8.4,7.3-12.9,10.7c-2.9,2.2-10.5,9.4-14.3,8.5c-3.4-0.8-6.4-8.1-8.8-10.8C899.2,69.7,894.7,66.1,890.2,62.5z"/>
	<ellipse id="purple_x5F_fish_x5F_eye" cx="800.7" cy="76.1" rx="6.8" ry="7.1"/>
</g>
</svg>
